<svg width="90" height="90" viewBox="0 0 90 90" fill="none" xmlns="http://www.w3.org/2000/svg">
<path d="M65.2542 81.3231C65.3649 81.5216 65.6158 81.5929 65.8133 81.4802C73.682 76.9909 79.8918 70.0752 83.5102 61.762C87.1835 53.3228 87.9829 43.9106 85.7855 34.9728C83.5881 26.035 78.5156 18.0665 71.3481 12.2925C64.1805 6.51857 55.3147 3.25891 46.114 3.01478C36.9133 2.77065 27.8872 5.55557 20.4235 10.9413C12.9598 16.327 7.4719 24.0154 4.80365 32.8241C2.1354 41.6328 2.43454 51.074 5.65508 59.6962C8.82757 68.1896 14.6619 75.4249 22.2815 80.3252C22.4726 80.4481 22.727 80.3903 22.8481 80.1979C22.9692 80.0055 22.9111 79.7515 22.7199 79.6285C15.253 74.8243 9.53556 67.7326 6.42619 59.4081C3.26877 50.955 2.97549 41.6987 5.59145 33.0627C8.20741 24.4266 13.5878 16.889 20.9052 11.6088C28.2225 6.32863 37.0718 3.59829 46.0922 3.83764C55.1126 4.07698 63.8046 7.27276 70.8317 12.9336C77.8588 18.5944 82.8318 26.4067 84.9861 35.1693C87.1404 43.932 86.3567 53.1596 82.7555 61.4334C79.209 69.5813 73.1235 76.3598 65.4124 80.7613C65.2149 80.874 65.1435 81.1245 65.2542 81.3231Z" fill="url(#paint0_linear_732_8113)"/>
<path d="M65.1733 81.1794C65.9011 82.4845 67.5543 82.9595 68.8124 82.1532C76.4227 77.2755 82.3718 70.1637 85.8217 61.7616C89.615 52.5231 90.1625 42.2712 87.3747 32.6812C84.5869 23.0913 78.6286 14.7305 70.4737 8.96542C63.0572 3.72226 54.2226 0.908028 45.1834 0.870465C43.6891 0.864256 42.5481 2.15153 42.6335 3.64338C42.7188 5.13524 43.9984 6.26553 45.4926 6.28454C53.3076 6.38401 60.9336 8.84802 67.35 13.3841C74.5049 18.4422 79.7325 25.7778 82.1785 34.1918C84.6244 42.6058 84.1441 51.6006 80.8159 59.7062C77.8313 66.9752 72.7147 73.1435 66.1709 77.417C64.9198 78.2341 64.4456 79.8743 65.1733 81.1794Z" fill="url(#paint1_linear_732_8113)"/>
<defs>
<linearGradient id="paint0_linear_732_8113" x1="84.9738" y1="45.0001" x2="3.12425" y2="45.0001" gradientUnits="userSpaceOnUse">
<stop stop-color="#4098FC"/>
<stop offset="0.514423" stop-color="#FF6E00"/>
</linearGradient>
<linearGradient id="paint1_linear_732_8113" x1="45" y1="77" x2="45" y2="1" gradientUnits="userSpaceOnUse">
<stop stop-color="#FF6E00"/>
<stop offset="1" stop-color="#4098FC"/>
</linearGradient>
</defs>
</svg>
